<?xml version="1.0" encoding="utf-8"?>
<svg xmlns="http://www.w3.org/2000/svg" style="margin: auto; background: rgb(241, 242, 243); display: block; shape-rendering: auto;" width="289" height="250" preserveAspectRatio="xMidYMid">
<style type="text/css">
  text {
    text-anchor: middle; font-size: 80px; opacity: 0;
  }
</style>
<g style="transform-origin:144.5px 125px;transform:scale(1)">
<g transform="translate(144.5,125)">
  <g transform="translate(0,0)"><g class="path" style="transform: scale(0.91); transform-origin: -90.9201px -6.39429px; animation: 1s linear -0.565714s infinite normal forwards running breath-c7acbdf0-03d0-4b9d-ad3e-20d66b343555;"><path d="M1.68-54.48L1.68-56L25.60-56L25.60-56Q36.72-56 42.28-53L42.28-53L42.28-53Q47.84-50 47.84-42.88L47.84-42.88L47.84-42.88Q47.84-31.92 34.64-29.76L34.64-29.76L34.64-29.60L34.64-29.60Q50.64-27.60 50.64-15.68L50.64-15.68L50.64-15.68Q50.64-6.96 44.08-3.48L44.08-3.48L44.08-3.48Q37.52 0 25.20 0L25.20 0L1.68 0L1.68-1.52L6.88-1.52L6.88-54.48L1.68-54.48zM24.32-28.32L22.48-28.32L22.48-1.52L26.24-1.52L26.24-1.52Q30.64-1.52 32.40-4.56L32.40-4.56L32.40-4.56Q34.16-7.60 34.16-13.52L34.16-13.52L34.16-17.76L34.16-17.76Q34.16-23.04 32-25.68L32-25.68L32-25.68Q29.84-28.32 24.32-28.32L24.32-28.32zM25.04-54.48L22.48-54.48L22.48-29.84L24.56-29.84L24.56-29.84Q28.72-29.84 30.36-32.36L30.36-32.36L30.36-32.36Q32-34.88 32-40.08L32-40.08L32-43.84L32-43.84Q32-49.76 30.56-52.12L30.56-52.12L30.56-52.12Q29.12-54.48 25.04-54.48L25.04-54.48" fill="#3be8b0" stroke="none" stroke-width="none" transform="translate(-117.08004760742188,21.605715476444797)" style="fill: rgb(59, 232, 176);"></path></g><g class="path" style="transform: scale(0.91); transform-origin: -42.6401px 2.56571px; animation: 1s linear -0.471429s infinite normal forwards running breath-c7acbdf0-03d0-4b9d-ad3e-20d66b343555;"><path d="M79.36-15.76L79.36-15.76L79.36-22.56L79.36-22.56Q79.36-30.32 78.52-33.88L78.52-33.88L78.52-33.88Q77.68-37.44 74.64-37.44L74.64-37.44L74.64-37.44Q72.88-37.44 71.80-36.44L71.80-36.44L71.80-36.44Q70.72-35.44 70.24-33.12L70.24-33.12L70.24-33.12Q69.52-29.52 69.52-22.16L69.52-22.16L69.52-15.92L69.52-15.92Q69.52-7.20 70.04-5.44L70.04-5.44L70.04-5.44Q70.56-3.68 71.12-2.56L71.12-2.56L71.12-2.56Q72-0.64 74.56-0.64L74.56-0.64L74.56-0.64Q77.68-0.64 78.64-4.24L78.64-4.24L78.64-4.24Q79.36-6.80 79.36-15.76zM74.40 0.80L74.40 0.80Q64.40 0.80 59.28-4.32L59.28-4.32L59.28-4.32Q54.16-9.44 54.16-19L54.16-19L54.16-19Q54.16-28.56 59.64-33.72L59.64-33.72L59.64-33.72Q65.12-38.88 75.04-38.88L75.04-38.88L75.04-38.88Q84.96-38.88 89.84-34.12L89.84-34.12L89.84-34.12Q94.72-29.36 94.72-19.60L94.72-19.60L94.72-19.60Q94.72 0.80 74.40 0.80L74.40 0.80" fill="#3be8b0" stroke="none" stroke-width="none" transform="translate(-117.08004760742188,21.605715476444797)" style="fill: rgb(26, 175, 208);"></path></g><g class="path" style="transform: scale(0.91); transform-origin: 2.75994px -7.99429px; animation: 1s linear -0.377143s infinite normal forwards running breath-c7acbdf0-03d0-4b9d-ad3e-20d66b343555;"><path d="M113.20-16.56L113.20-16.56Q113.20-8.16 114.08-5.40L114.08-5.40L114.08-5.40Q114.96-2.64 117.32-2.64L117.32-2.64L117.32-2.64Q119.68-2.64 121.40-4.72L121.40-4.72L121.40-4.72Q123.12-6.80 123.12-10.88L123.12-10.88L123.12-28.32L123.12-28.32Q123.12-31.76 121.76-34.16L121.76-34.16L121.76-34.16Q120.40-36.56 117.76-36.56L117.76-36.56L117.76-36.56Q115.12-36.56 114.16-33.04L114.16-33.04L114.16-33.04Q113.20-29.52 113.20-20.72L113.20-20.72L113.20-16.56zM141.92 0L124.16 0L123.28-5.60L123.28-5.60Q120.56 0.80 112.24 0.80L112.24 0.80L112.24 0.80Q105.36 0.80 101.56-4.16L101.56-4.16L101.56-4.16Q97.76-9.12 97.76-18.96L97.76-18.96L97.76-18.96Q97.76-38.88 113.60-38.88L113.60-38.88L113.60-38.88Q120.64-38.88 122.88-34.96L122.88-34.96L122.88-58.56L118-58.56L118-60L138-60L138-1.44L141.92-1.44L141.92 0" fill="#3be8b0" stroke="none" stroke-width="none" transform="translate(-117.08004760742188,21.605715476444797)" style="fill: rgb(106, 103, 206);"></path></g><g class="path" style="transform: scale(0.91); transform-origin: 38.8799px -29.4343px; animation: 1s linear -0.282857s infinite normal forwards running breath-c7acbdf0-03d0-4b9d-ad3e-20d66b343555;"><path d="M155.76-43.60L155.76-43.60L155.76-43.60Q151.52-43.60 149.72-45.76L149.72-45.76L149.72-45.76Q147.92-47.92 147.92-51.12L147.92-51.12L147.92-51.12Q147.92-54.32 149.88-56.40L149.88-56.40L149.88-56.40Q151.84-58.48 155.84-58.48L155.84-58.48L155.84-58.48Q159.84-58.48 161.92-56.60L161.92-56.60L161.92-56.60Q164-54.72 164-51.24L164-51.24L164-51.24Q164-47.76 162-45.68L162-45.68L162-45.68Q160-43.60 155.76-43.60" fill="#3be8b0" stroke="none" stroke-width="none" transform="translate(-117.08004760742188,21.605715476444797)" style="fill: rgb(255, 185, 0);"></path></g><g class="path" style="transform: scale(0.91); transform-origin: 38.6399px 2.56571px; animation: 1s linear -0.188571s infinite normal forwards running breath-c7acbdf0-03d0-4b9d-ad3e-20d66b343555;"><path d="M143.68-36.64L143.68-38.08L163.28-38.08L163.28-1.44L167.76-1.44L167.76 0L144 0L144-1.44L148.40-1.44L148.40-36.64L143.68-36.64" fill="#3be8b0" stroke="none" stroke-width="none" transform="translate(-117.08004760742188,21.605715476444797)" style="fill: rgb(252, 99, 107);"></path></g><g class="path" style="transform: scale(0.91); transform-origin: 63.9999px -8.39429px; animation: 1s linear -0.0942857s infinite normal forwards running breath-c7acbdf0-03d0-4b9d-ad3e-20d66b343555;"><path d="M169.04-58.56L169.04-60L188.64-60L188.64-1.44L193.12-1.44L193.12 0L169.36 0L169.36-1.44L173.76-1.44L173.76-58.56L169.04-58.56" fill="#3be8b0" stroke="none" stroke-width="none" transform="translate(-117.08004760742188,21.605715476444797)" style="fill: rgb(59, 232, 176);"></path></g><g class="path" style="transform: scale(0.91); transform-origin: 97.2399px 12.5657px; animation: 1s linear 0s infinite normal forwards running breath-c7acbdf0-03d0-4b9d-ad3e-20d66b343555;"><path d="M196.32-36.64L193.04-36.64L193.04-38.08L216.24-38.08L216.24-36.64L211.92-36.64L220.64-10.08L229.92-36.64L224.56-36.64L224.56-38.08L235.84-38.08L235.84-36.64L231.84-36.64L216.88 6.48L216.88 6.48Q214.24 14 210.96 17L210.96 17L210.96 17Q207.68 20 202.96 20L202.96 20L202.96 20Q198.24 20 195.52 17.84L195.52 17.84L195.52 17.84Q192.80 15.68 192.80 12.32L192.80 12.32L192.80 12.32Q192.80 8.96 194.56 7.20L194.56 7.20L194.56 7.20Q196.32 5.44 199.20 5.44L199.20 5.44L199.20 5.44Q205.84 5.44 205.84 10.96L205.84 10.96L205.84 10.96Q205.84 12.16 205.36 13.84L205.36 13.84L202.56 13.84L202.56 13.84Q201.92 15.68 202.40 16.88L202.40 16.88L202.40 16.88Q202.88 18.08 204.56 18.08L204.56 18.08L204.56 18.08Q207.84 18.08 210.40 14.84L210.40 14.84L210.40 14.84Q212.96 11.60 215.28 4.96L215.28 4.96L217.04 0L210 0L196.32-36.64" fill="#3be8b0" stroke="none" stroke-width="none" transform="translate(-117.08004760742188,21.605715476444797)" style="fill: rgb(26, 175, 208);"></path></g></g>
</g>
</g>
<style id="breath-c7acbdf0-03d0-4b9d-ad3e-20d66b343555" data-anikit="">@keyframes breath-c7acbdf0-03d0-4b9d-ad3e-20d66b343555
{
  0% {
    animation-timing-function: cubic-bezier(0.9647,0.2413,-0.0705,0.7911);
    transform: scale(0.9099999999999999);
  }
  51% {
    animation-timing-function: cubic-bezier(0.9226,0.2631,-0.0308,0.7628);
    transform: scale(1.02994);
  }
  100% {
    transform: scale(0.9099999999999999);
  }
}</style></svg>